Godard y el maoismo. Estrenada un año antes del mayo del 68, "La Chinoise" relata las inquietudes por cambiar el mundo de un grupo de estudiantes franceses empapados del pensamiento de Mao Tse Tung. París, durante el verano de 1967, cuando pocos intentaban aplicar los principios que rompieron con la burguesía de la URSS y de los partidos comunistas occidentales en el nombre de Mao Tse Tung. Empapados del pensamiento de Mao y de literatura comunista, un grupo de estudiantes franceses se empieza a preguntar por su posición en el mundo y las posibilidades de cambiarlo, aunque eso signifique considerar el terrorismo como una posible vía... (FILMAFFINITY)

Audio francés (VO) y español. Subtítulos

Video info:
Input #0, matroska,webm, from 'La_Chinoise_fr_es_porKaptan.mkv':
  Duration: 01:32:13.08, start: 0.000000, bitrate: N/A
    Stream #0.0(eng): Video: h264 (Main), yuv420p, 700x576 [PAR 16:15 DAR 35:27], PAR 227:213 DAR 39725:30672, 25 fps, 25 tbr, 1k tbn, 180k tbc (default)
    Stream #0.1(spa): Audio: aac, 48000 Hz, stereo, s16 (default)
    Stream #0.2(fre): Audio: aac, 48000 Hz, stereo, s16
    Stream #0.3(spa): Subtitle: dvdsub (default)